<svg id="Layer_1" data-name="Layer 1" xmlns="http://www.w3.org/2000/svg" viewBox="0 0 546.68 68.12"><defs><style>.cls-1{fill:#002478;}.cls-2{isolation:isolate;}</style></defs><title>mRes-portal-horizontal</title><path id="Path_5579" data-name="Path 5579" class="cls-1" d="M75.07,28.14,63.26,52.08c-1.08,2.17-1.95,4.34-1.95,5.53a1,1,0,0,0,1.09,1.08c2.82,0,9.21-9.53,10.4-9.53s1.63,1.19,1.63,1.84c0,.87-11.6,14.63-18.2,14.63-3.58,0-5.31-1.63-5.31-4.55,0-2.06.86-4.77,2.49-8.13L65.1,29.11a8.56,8.56,0,0,0,1.2-4c0-1.63-1.08-2.6-2.93-2.6-4.76,0-13.11,12.89-24.27,30.33l-4.33,9.21c-.76,1.41-2.06,2.28-5.1,2.28-4,0-5-1.19-4.44-2.28L40.94,29.11A9,9,0,0,0,42,25.32c0-1.84-1.09-2.82-3-2.82-5.52,0-13.76,13-24.59,30.34l-4.23,9.21c-.54,1.3-2.06,2.28-5.09,2.28-4,0-5-1.19-4.44-2.28L15.91,29.11c.87-2.06,1.74-4,1.74-5.31,0-.76-.33-1.3-1.09-1.3C13.64,22.5,7.35,32,6.49,32a2,2,0,0,1-1.74-1.85c0-1,11.16-14.62,17.77-14.62,4,0,5.42,2.16,5.42,4.87,0,2.39-1.08,5.31-2.17,7.7l-2.38,5.2C28.81,24,37.48,15.57,45.17,15.57c5.09,0,7,3.36,7,7.15a13.21,13.21,0,0,1-1.3,5.42l-2.17,4.44c5.64-9.1,13.33-17,20.8-17,5,0,6.94,3.36,6.94,6.94A12.71,12.71,0,0,1,75.07,28.14Z"/><path id="Path_5580" data-name="Path 5580" class="cls-1" d="M125.12,64.45,112.9,46.81H99.42V64.45H84.76V1.11h27.42a35.07,35.07,0,0,1,14.61,2.81,21.73,21.73,0,0,1,9.55,8,21.94,21.94,0,0,1,3.35,12.22,21.58,21.58,0,0,1-3.39,12.17,21.46,21.46,0,0,1-9.64,7.82l14.21,20.36Zm-3.71-48.54q-3.43-2.85-10-2.85h-12V35.14h12q6.6,0,10-2.9a10.08,10.08,0,0,0,3.44-8.15Q124.85,18.77,121.41,15.91Z"/><path id="Path_5581" data-name="Path 5581" class="cls-1" d="M195.25,44.09H158.42a11.43,11.43,0,0,0,4.7,7.15,15.62,15.62,0,0,0,9.23,2.63,18.63,18.63,0,0,0,6.74-1.14,16.33,16.33,0,0,0,5.48-3.57l7.51,8.14Q185.2,65.18,172,65.18A31.81,31.81,0,0,1,157.42,62a23.56,23.56,0,0,1-9.77-8.92,24.62,24.62,0,0,1-3.44-12.94,24.86,24.86,0,0,1,3.4-12.9,23.76,23.76,0,0,1,9.32-9,28.88,28.88,0,0,1,26.2-.13,22.5,22.5,0,0,1,9.09,8.82,26.37,26.37,0,0,1,3.3,13.35C195.52,40.47,195.43,41.74,195.25,44.09Zm-33-15.65a11.52,11.52,0,0,0-4,7.42h24a11.69,11.69,0,0,0-4-7.38,11.89,11.89,0,0,0-8-2.76A12.15,12.15,0,0,0,162.22,28.44Z"/><path id="Path_5582" data-name="Path 5582" class="cls-1" d="M209.27,63.68A30.92,30.92,0,0,1,200,59.93l4.71-10.14a29.58,29.58,0,0,0,7.87,3.4,33.39,33.39,0,0,0,9,1.31q9,0,9-4.43c0-1.39-.82-2.39-2.45-3a36.29,36.29,0,0,0-7.51-1.54,72.31,72.31,0,0,1-9.86-2.08,15.33,15.33,0,0,1-6.74-4.16q-2.85-3-2.85-8.51a13.35,13.35,0,0,1,2.67-8.19A17.16,17.16,0,0,1,211.67,17a33.14,33.14,0,0,1,12.08-2A47.32,47.32,0,0,1,234,16.18a28.73,28.73,0,0,1,8.46,3.12l-4.7,10a28.14,28.14,0,0,0-14-3.62A14.31,14.31,0,0,0,217,27a3.75,3.75,0,0,0-2.26,3.26,3.23,3.23,0,0,0,2.44,3.16,42.34,42.34,0,0,0,7.79,1.72,85.9,85.9,0,0,1,9.77,2.13,14.75,14.75,0,0,1,6.61,4.12c1.86,2,2.8,4.76,2.8,8.32a12.91,12.91,0,0,1-2.72,8.06,17.34,17.34,0,0,1-7.92,5.47,35.3,35.3,0,0,1-12.35,2,47.35,47.35,0,0,1-11.85-1.5Z"/><g id="PORTAL" class="cls-2"><g class="cls-2"><path class="cls-1" d="M299.32,15.75a15.26,15.26,0,0,1,5.29,5.74,16.5,16.5,0,0,1,2,8,17,17,0,0,1-2,8.07,15.41,15.41,0,0,1-5.29,5.84,13.14,13.14,0,0,1-7.25,2.15H278.16V61.89a3.57,3.57,0,0,1-1,2.52,3.5,3.5,0,0,1-4.93,0,3.61,3.61,0,0,1-.92-2.55V17.2a3.53,3.53,0,0,1,3.55-3.56h17.17A13.35,13.35,0,0,1,299.32,15.75Zm-3.55,21.76a9.06,9.06,0,0,0,2.7-3.44,10.68,10.68,0,0,0,1-4.59,9.7,9.7,0,0,0-2.18-6.4,6.61,6.61,0,0,0-5.22-2.63H278.16V38.8h13.91A6,6,0,0,0,295.77,37.51Z"/><path class="cls-1" d="M359.59,53.09a24.56,24.56,0,0,1-8.91,9.58,25.39,25.39,0,0,1-25.76,0A24.48,24.48,0,0,1,316,53.09a28.42,28.42,0,0,1-3.22-13.55A28.41,28.41,0,0,1,316,26a24.48,24.48,0,0,1,8.91-9.58,25.32,25.32,0,0,1,25.76,0A24.56,24.56,0,0,1,359.59,26a28.41,28.41,0,0,1,3.22,13.54A28.42,28.42,0,0,1,359.59,53.09ZM353,29.52a17.27,17.27,0,0,0-6.18-7,16.18,16.18,0,0,0-9-2.56,16.39,16.39,0,0,0-9,2.52,17.09,17.09,0,0,0-6.18,7,22.47,22.47,0,0,0-2.22,10.1,22.26,22.26,0,0,0,2.22,10,17.27,17.27,0,0,0,6.18,7,17.12,17.12,0,0,0,18,0,17.27,17.27,0,0,0,6.18-7,22.26,22.26,0,0,0,2.22-10A22.22,22.22,0,0,0,353,29.52Z"/><path class="cls-1" d="M412.76,60.82a3.15,3.15,0,0,1,.45,1.59,2.67,2.67,0,0,1-1,2.29,3.9,3.9,0,0,1-2.41.74,4.39,4.39,0,0,1-2.37-.59,9.21,9.21,0,0,1-3.62-4.07Q402.4,58,402.4,52.49c0-2.46-.74-4.29-2.22-5.47a8.92,8.92,0,0,0-5.77-1.78h-15V61.89a3.64,3.64,0,0,1-.89,2.55,2.9,2.9,0,0,1-2.29,1,4.34,4.34,0,0,1-2.92-1,3.17,3.17,0,0,1-1.22-2.52V17.2a3.53,3.53,0,0,1,3.55-3.56h20.79a14.24,14.24,0,0,1,7.33,2A14.79,14.79,0,0,1,409.14,21a15.11,15.11,0,0,1,2,7.73,14.43,14.43,0,0,1-2.22,7.73,14.34,14.34,0,0,1-5.69,5.37,10.91,10.91,0,0,1,4.32,3.92,11.65,11.65,0,0,1,1.74,5.85,40.63,40.63,0,0,0,.67,5.73,3.19,3.19,0,0,0,1.63,2.18A4,4,0,0,1,412.76,60.82Zm-12.91-23.2a9.61,9.61,0,0,0,2.7-3.59,12,12,0,0,0,1-5.07,8.78,8.78,0,0,0-2.19-6,6.8,6.8,0,0,0-5.29-2.48H379.46V39.1h16.87A6.38,6.38,0,0,0,399.85,37.62Z"/><path class="cls-1" d="M458.23,14.57a3.2,3.2,0,0,1,1,2.48,3.09,3.09,0,0,1-1,2.44,3.68,3.68,0,0,1-2.55.89H442.51V61.89a3.39,3.39,0,0,1-1.07,2.52,4.07,4.07,0,0,1-5.41,0A3.39,3.39,0,0,1,435,61.89V20.38h-13.1a3.61,3.61,0,0,1-2.55-.93,3.19,3.19,0,0,1-1-2.48,3.12,3.12,0,0,1,1-2.4,3.61,3.61,0,0,1,2.55-.93h33.82A3.57,3.57,0,0,1,458.23,14.57Z"/><path class="cls-1" d="M504.3,62.26A3.36,3.36,0,0,1,501,65.67a3.11,3.11,0,0,1-1.89-.63,4.47,4.47,0,0,1-1.37-1.74l-4.59-10.88H470.26l-4.52,10.95a3.23,3.23,0,0,1-3.1,2.3,3.22,3.22,0,0,1-2.37-.82,3,3,0,0,1-.82-2.22,8.84,8.84,0,0,1,.15-1.18l18.87-45.73a4.16,4.16,0,0,1,1.45-1.82,2.93,2.93,0,0,1,2.1-.48,3.56,3.56,0,0,1,2,.59,3.25,3.25,0,0,1,1.26,1.71l18.8,45.14A4.61,4.61,0,0,1,504.3,62.26ZM473.07,45.69h17.24L481.65,25Z"/><path class="cls-1" d="M542.89,59.52a3.34,3.34,0,0,1,1,2.52,3.22,3.22,0,0,1-1,2.44,3.54,3.54,0,0,1-2.55,1h-25a3.41,3.41,0,0,1-2.56-1,3.52,3.52,0,0,1-1-2.52V17.2a3.43,3.43,0,0,1,1-2.52,3.79,3.79,0,0,1,5.22,0,3.39,3.39,0,0,1,1.07,2.52V58.56h21.24A3.54,3.54,0,0,1,542.89,59.52Z"/></g></g></svg>