<svg id="Layer_1" data-name="Layer 1" xmlns="http://www.w3.org/2000/svg" viewBox="0 0 261 132"><defs><style>.cls-1{fill:#002478;}.cls-2{isolation:isolate;}.cls-3{fill:none;stroke:#002478;stroke-linecap:round;stroke-width:4px;}</style></defs><title>mRes-poertal-stacked</title><g id="Group_3394" data-name="Group 3394"><path id="Path_5579" data-name="Path 5579" class="cls-1" d="M83.07,27,71.26,51c-1.08,2.17-2,4.34-2,5.53a1,1,0,0,0,.85,1.08h.24c2.82,0,9.21-9.53,10.4-9.53s1.63,1.19,1.63,1.84c0,.86-11.6,14.63-18.2,14.63-3.58,0-5.31-1.63-5.31-4.56,0-2,.86-4.76,2.49-8.12L73.1,28a8.6,8.6,0,0,0,1.2-4c0-1.62-1.08-2.6-2.93-2.6-4.76,0-13.11,12.9-24.27,30.34L42.77,61c-.76,1.41-2.06,2.27-5.1,2.27-4,0-5-1.19-4.44-2.27L48.94,28A9,9,0,0,0,50,24.22c0-1.84-1.09-2.82-3-2.82-5.52,0-13.76,13-24.59,30.34L18.17,61c-.54,1.3-2.06,2.27-5.09,2.27-4,0-5-1.19-4.44-2.27L23.91,28c.87-2.06,1.74-4,1.74-5.31,0-.76-.33-1.3-1.09-1.3-2.92,0-9.21,9.53-10.07,9.53a2,2,0,0,1-1.74-1.84c0-1,11.16-14.62,17.77-14.62,4,0,5.42,2.16,5.42,4.87,0,2.39-1.08,5.31-2.17,7.69l-2.38,5.2c5.42-9.31,14.09-17.76,21.78-17.76,5.09,0,7,3.36,7,7.15A13.24,13.24,0,0,1,58.91,27l-2.17,4.44c5.64-9.1,13.33-17,20.8-17,5,0,6.94,3.36,6.94,6.93A12.76,12.76,0,0,1,83.07,27Z"/><path id="Path_5580" data-name="Path 5580" class="cls-1" d="M133.12,63.35,120.9,45.71H107.42V63.35H92.76V0h27.42a35.07,35.07,0,0,1,14.61,2.81,21.67,21.67,0,0,1,9.55,8A21.93,21.93,0,0,1,147.69,23a21.53,21.53,0,0,1-3.39,12.17A21.48,21.48,0,0,1,134.66,43l14.21,20.36ZM129.41,14.8Q126,12,119.37,12h-12V34h12q6.6,0,10-2.9A10.06,10.06,0,0,0,132.85,23C132.85,19.43,131.7,16.71,129.41,14.8Z"/><path id="Path_5581" data-name="Path 5581" class="cls-1" d="M203.25,43H166.42a11.45,11.45,0,0,0,4.7,7.15,15.62,15.62,0,0,0,9.23,2.62,18.62,18.62,0,0,0,6.74-1.13,16.33,16.33,0,0,0,5.48-3.57l7.51,8.14Q193.2,64.08,180,64.08a31.69,31.69,0,0,1-14.57-3.22A23.53,23.53,0,0,1,155.65,52,24.62,24.62,0,0,1,152.21,39a24.86,24.86,0,0,1,3.4-12.9,23.76,23.76,0,0,1,9.32-9,28.88,28.88,0,0,1,26.2-.13,22.44,22.44,0,0,1,9.09,8.82,26.37,26.37,0,0,1,3.3,13.35C203.52,39.37,203.43,40.64,203.25,43Zm-33-15.65a11.52,11.52,0,0,0-4,7.42h24a11.67,11.67,0,0,0-4-7.38,11.89,11.89,0,0,0-8-2.76A12.15,12.15,0,0,0,170.22,27.34Z"/><path id="Path_5582" data-name="Path 5582" class="cls-1" d="M217.27,62.58A30.92,30.92,0,0,1,208,58.83l4.71-10.14a29.58,29.58,0,0,0,7.87,3.4,33.39,33.39,0,0,0,9,1.31q9,0,9-4.44c0-1.38-.82-2.38-2.45-3a36.29,36.29,0,0,0-7.51-1.54,72.31,72.31,0,0,1-9.86-2.08,15.33,15.33,0,0,1-6.74-4.16q-2.85-3-2.85-8.51a13.35,13.35,0,0,1,2.67-8.19,17.16,17.16,0,0,1,7.78-5.56,33.15,33.15,0,0,1,12.08-2A48,48,0,0,1,242,15.08a28.73,28.73,0,0,1,8.46,3.12l-4.7,10a28.14,28.14,0,0,0-14-3.62A14.31,14.31,0,0,0,225,25.89a3.75,3.75,0,0,0-2.26,3.26,3.23,3.23,0,0,0,2.44,3.16A43.17,43.17,0,0,0,232.93,34a83.8,83.8,0,0,1,9.77,2.13,14.73,14.73,0,0,1,6.61,4.11c1.86,2,2.8,4.77,2.8,8.33a12.9,12.9,0,0,1-2.72,8,17.28,17.28,0,0,1-7.92,5.48,35.06,35.06,0,0,1-12.35,1.94,46.88,46.88,0,0,1-11.85-1.49Z"/><g id="PORTAL" class="cls-2"><g class="cls-2"><path class="cls-1" d="M19.24,98.15A7.72,7.72,0,0,1,21.89,101a8.31,8.31,0,0,1,1,4,8.52,8.52,0,0,1-1,4A7.65,7.65,0,0,1,19.24,112a6.53,6.53,0,0,1-3.62,1.08h-7v8.17a1.77,1.77,0,0,1-.48,1.26A1.58,1.58,0,0,1,7,123a1.62,1.62,0,0,1-1.24-.5,1.8,1.8,0,0,1-.47-1.28V98.88A1.78,1.78,0,0,1,7,97.1h8.59A6.67,6.67,0,0,1,19.24,98.15ZM17.46,109a4.51,4.51,0,0,0,1.36-1.72,5.38,5.38,0,0,0,.49-2.29,4.81,4.81,0,0,0-1.09-3.2,3.26,3.26,0,0,0-2.6-1.32h-7v9.18h7A3,3,0,0,0,17.46,109Z"/><path class="cls-1" d="M72.69,116.82a12.33,12.33,0,0,1-4.46,4.79,12.66,12.66,0,0,1-12.88,0,12.33,12.33,0,0,1-4.46-4.79,15,15,0,0,1,0-13.54,12.33,12.33,0,0,1,4.46-4.79,12.66,12.66,0,0,1,12.88,0,12.33,12.33,0,0,1,4.46,4.79,15,15,0,0,1,0,13.54ZM69.38,105a8.62,8.62,0,0,0-3.09-3.52,8.13,8.13,0,0,0-4.5-1.27,8.22,8.22,0,0,0-4.49,1.25,8.56,8.56,0,0,0-3.09,3.5,12,12,0,0,0,0,10.06,8.62,8.62,0,0,0,3.09,3.52,8.53,8.53,0,0,0,9,0,8.62,8.62,0,0,0,3.09-3.52,11.86,11.86,0,0,0,0-10Z"/><path class="cls-1" d="M122.58,120.69a1.55,1.55,0,0,1,.22.79,1.32,1.32,0,0,1-.5,1.15,1.93,1.93,0,0,1-1.2.37,2.18,2.18,0,0,1-1.18-.3,4.56,4.56,0,0,1-1.82-2,9.71,9.71,0,0,1-.7-4.14,3.29,3.29,0,0,0-1.11-2.74,4.48,4.48,0,0,0-2.88-.89h-7.48v8.32a1.88,1.88,0,0,1-.44,1.28,1.48,1.48,0,0,1-1.15.5,2.16,2.16,0,0,1-1.46-.52,1.57,1.57,0,0,1-.61-1.26V98.88A1.78,1.78,0,0,1,104,97.1h10.4a7.12,7.12,0,0,1,3.66,1,7.36,7.36,0,0,1,2.67,2.7,7.64,7.64,0,0,1,1,3.87,7.52,7.52,0,0,1-4,6.55,5.46,5.46,0,0,1,2.16,2,5.86,5.86,0,0,1,.87,2.92,19.45,19.45,0,0,0,.34,2.87A1.58,1.58,0,0,0,122,120,1.93,1.93,0,0,1,122.58,120.69Zm-6.46-11.6a4.85,4.85,0,0,0,1.36-1.8,6,6,0,0,0,.51-2.53,4.42,4.42,0,0,0-1.09-3,3.42,3.42,0,0,0-2.64-1.24h-8.33v9.33h8.44A3.21,3.21,0,0,0,116.12,109.09Z"/><path class="cls-1" d="M168.26,97.56a1.62,1.62,0,0,1,.5,1.24,1.55,1.55,0,0,1-.5,1.22,1.85,1.85,0,0,1-1.28.45H160.4v20.75a1.66,1.66,0,0,1-.54,1.26,1.86,1.86,0,0,1-1.35.52,1.82,1.82,0,0,1-1.35-.52,1.66,1.66,0,0,1-.54-1.26V100.47h-6.55a1.78,1.78,0,0,1-1.27-.47,1.57,1.57,0,0,1-.5-1.24,1.54,1.54,0,0,1,.5-1.2,1.77,1.77,0,0,1,1.27-.46H167A1.81,1.81,0,0,1,168.26,97.56Z"/><path class="cls-1" d="M214.49,121.41a1.67,1.67,0,0,1-1.67,1.7,1.54,1.54,0,0,1-.94-.31,2.23,2.23,0,0,1-.68-.87l-2.3-5.44H197.47L195.21,122a1.58,1.58,0,0,1-1.55,1.15,1.6,1.6,0,0,1-1.19-.41,1.5,1.5,0,0,1-.4-1.11,4.38,4.38,0,0,1,.07-.59l9.44-22.86a2,2,0,0,1,.72-.91,1.48,1.48,0,0,1,1-.24,1.76,1.76,0,0,1,1,.3,1.53,1.53,0,0,1,.63.85l9.4,22.57A2.28,2.28,0,0,1,214.49,121.41Zm-15.61-8.29h8.62l-4.33-10.36Z"/><path class="cls-1" d="M257.09,120a1.64,1.64,0,0,1,.5,1.26,1.6,1.6,0,0,1-.5,1.22,1.74,1.74,0,0,1-1.27.48H243.31a1.66,1.66,0,0,1-1.27-.52,1.7,1.7,0,0,1-.5-1.26V98.88a1.71,1.71,0,0,1,.51-1.26,1.8,1.8,0,0,1,1.34-.52,1.75,1.75,0,0,1,1.27.52,1.66,1.66,0,0,1,.54,1.26v20.68h10.62A1.74,1.74,0,0,1,257.09,120Z"/></g></g><line id="Line_94" data-name="Line 94" class="cls-3" x1="2" y1="82.5" x2="259" y2="82.5"/></g></svg>